<?xml version="1.0" encoding="utf-8"?>
<!-- Generator: Adobe Illustrator 26.4.1, SVG Export Plug-In . SVG Version: 6.00 Build 0)  -->
<svg version="1.1" id="Layer_1" xmlns="http://www.w3.org/2000/svg" xmlns:xlink="http://www.w3.org/1999/xlink" x="0px" y="0px"
	 viewBox="0 0 100 100" style="enable-background:new 0 0 100 100;" xml:space="preserve">
<style type="text/css">
	.st0{fill:url(#SVGID_1_);}
	.st1{fill:#DBA0F9;}
	.st2{fill:#00669E;}
	.st3{opacity:0.61;fill:url(#SVGID_00000183238086873670392900000005575968500494356369_);}
	.st4{opacity:0.23;fill:url(#SVGID_00000060725339036426960720000009736763690856909503_);}
	.st5{opacity:0.58;}
	.st6{fill:#A6E4F4;}
	.st7{fill:#D275F9;}
	.st8{fill:url(#SVGID_00000103263950389531319560000008592308991635359402_);}
	.st9{fill:url(#SVGID_00000115480319261597878120000006942147406739891100_);}
</style>
<linearGradient id="SVGID_1_" gradientUnits="userSpaceOnUse" x1="50" y1="0.9873" x2="50" y2="95.9718">
	<stop  offset="0" style="stop-color:#8EB6CA"/>
	<stop  offset="0.6607" style="stop-color:#42D6D6"/>
	<stop  offset="1" style="stop-color:#16BDD0"/>
</linearGradient>
<path class="st0" d="M80.8,100H19.2C8.6,100,0,91.4,0,80.8V19.2C0,8.6,8.6,0,19.2,0h61.6C91.4,0,100,8.6,100,19.2v61.6
	C100,91.4,91.4,100,80.8,100z"/>
<path class="st1" d="M80.8,0H19.2C8.6,0,0,8.6,0,19.2v3C0,11.6,8.6,3,19.2,3h61.6C91.4,3,100,11.6,100,22.2v-3
	C100,8.6,91.4,0,80.8,0z"/>
<path class="st2" d="M80.8,96H19.2C8.6,96,0,87.4,0,76.8v4C0,91.4,8.6,100,19.2,100h61.6c10.6,0,19.2-8.6,19.2-19.2v-4
	C100,87.4,91.4,96,80.8,96z"/>
<linearGradient id="SVGID_00000116200875236009719980000006812901324212800904_" gradientUnits="userSpaceOnUse" x1="50" y1="7.712" x2="50" y2="26.2485">
	<stop  offset="0.2755" style="stop-color:#ECC5FC"/>
	<stop  offset="1" style="stop-color:#42D6D6;stop-opacity:0"/>
</linearGradient>
<path style="opacity:0.61;fill:url(#SVGID_00000116200875236009719980000006812901324212800904_);" d="M79.5,28.5H20.5
	c-5.9,0-10.7-4.8-10.7-10.7v0c0-5.9,4.8-10.7,10.7-10.7h59.1c5.9,0,10.7,4.8,10.7,10.7v0C90.2,23.7,85.4,28.5,79.5,28.5z"/>
<linearGradient id="SVGID_00000157283931923125173490000011430127177003531943_" gradientUnits="userSpaceOnUse" x1="431.3137" y1="71.9546" x2="431.3137" y2="99.4791" gradientTransform="matrix(-1 0 0 -1 481.3137 163.5801)">
	<stop  offset="0.2755" style="stop-color:#005ECC"/>
	<stop  offset="1" style="stop-color:#42D6D6;stop-opacity:0"/>
</linearGradient>
<path style="opacity:0.23;fill:url(#SVGID_00000157283931923125173490000011430127177003531943_);" d="M18.6,60.7h62.8
	c8.8,0,15.9,7.1,15.9,15.9v0c0,8.8-7.1,15.9-15.9,15.9H18.6c-8.8,0-15.9-7.1-15.9-15.9v0C2.7,67.8,9.8,60.7,18.6,60.7z"/>
<g class="st5">
	<g>
		<path class="st6" d="M54.3,36H38.1l1.8-9.4h43.5L81.6,36H65.5l-8.7,43.8H45.6L54.3,36z"/>
	</g>
	<g>
		<path class="st6" d="M18.3,27.1h4.3v-9.3h-3.6v-2.3c2.2-0.3,3.3-0.7,4.6-1.5h2.7v13.1h3.7v3H18.3V27.1z"/>
	</g>
</g>
<g>
	<g>
		<path class="st7" d="M56.5,38H40.3l1.8-9.4h43.5L83.8,38H67.7L59,81.8H47.8L56.5,38z"/>
	</g>
	<g>
		<path class="st7" d="M20.5,29h4.3v-9.3h-3.6v-2.3c2.2-0.3,3.3-0.7,4.6-1.5h2.7V29h3.7v3H20.5V29z"/>
	</g>
</g>
<g>
	<g>
		
			<linearGradient id="SVGID_00000064320964048566186500000000495361554703406472_" gradientUnits="userSpaceOnUse" x1="62.0061" y1="23.7692" x2="62.0061" y2="80.2207">
			<stop  offset="0.3361" style="stop-color:#42266B"/>
			<stop  offset="1" style="stop-color:#624781"/>
		</linearGradient>
		<path style="fill:url(#SVGID_00000064320964048566186500000000495361554703406472_);" d="M55.5,37H39.3l1.8-9.4h43.5L82.8,37H66.7
			L58,80.8H46.8L55.5,37z"/>
	</g>
	<g>
		
			<linearGradient id="SVGID_00000165198861293350469000000017740058959721154186_" gradientUnits="userSpaceOnUse" x1="25.4077" y1="13.3496" x2="25.4077" y2="31.3191">
			<stop  offset="0.3361" style="stop-color:#42266B"/>
			<stop  offset="1" style="stop-color:#624781"/>
		</linearGradient>
		<path style="fill:url(#SVGID_00000165198861293350469000000017740058959721154186_);" d="M19.5,28h4.3v-9.3h-3.6v-2.3
			c2.2-0.3,3.3-0.7,4.6-1.5h2.7V28h3.7v3H19.5V28z"/>
	</g>
</g>
</svg>
